<svg width="43" height="41" viewBox="0 0 43 41" fill="none" xmlns="http://www.w3.org/2000/svg">
<path d="M36.1251 38.7759C37.7405 38.7759 39.0501 37.5391 39.0501 36.0135C39.0501 34.488 37.7405 33.2511 36.1251 33.2511C34.5097 33.2511 33.2001 34.488 33.2001 36.0135C33.2001 37.5391 34.5097 38.7759 36.1251 38.7759Z" fill="#075CFF" stroke="#075CFF" stroke-width="2.98893" stroke-linecap="round" stroke-linejoin="round"/>
<path d="M16.625 38.7759C18.2403 38.7759 19.55 37.5391 19.55 36.0135C19.55 34.488 18.2403 33.2511 16.625 33.2511C15.0095 33.2511 13.7 34.488 13.7 36.0135C13.7 37.5391 15.0095 38.7759 16.625 38.7759Z" fill="#075CFF" stroke="#075CFF" stroke-width="2.98893" stroke-linecap="round" stroke-linejoin="round"/>
<path d="M7.85 5.62706H41L37.1 25.8847H11.75L7.85 5.62706ZM7.85 5.62706C7.52499 4.39932 5.9 1.94385 2 1.94385" stroke="#075CFF" stroke-width="2.98893" stroke-linecap="round" stroke-linejoin="round"/>
<path d="M37.1 25.8847H11.75H8.30004C4.82063 25.8847 2.97504 27.3234 2.97504 29.5679C2.97504 31.8125 4.82063 33.2512 8.30004 33.2512H36.125" stroke="#075CFF" stroke-width="2.98893" stroke-linecap="round" stroke-linejoin="round"/>
</svg>
