<svg width="47" height="44" viewBox="0 0 47 44" fill="none" xmlns="http://www.w3.org/2000/svg">
<path d="M12.7725 34V32C12.7725 26.4772 17.5955 22 23.545 22C29.4944 22 34.3175 26.4772 34.3175 32V34" stroke="#075CFF" stroke-width="3.67" stroke-linecap="round"/>
<path d="M23.5451 22C27.1149 22 30.0086 19.3138 30.0086 16C30.0086 12.6863 27.1149 10 23.5451 10C19.9753 10 17.0815 12.6863 17.0815 16C17.0815 19.3138 19.9753 22 23.5451 22Z" stroke="#075CFF" stroke-width="3.67" stroke-linecap="round" stroke-linejoin="round"/>
<path d="M23.545 42C35.444 42 45.0901 33.0457 45.0901 22C45.0901 10.9543 35.444 2 23.545 2C11.646 2 2 10.9543 2 22C2 33.0457 11.646 42 23.545 42Z" stroke="#075CFF" stroke-width="3.67"/>
</svg>
