<svg width="41" height="39" viewBox="0 0 41 39" fill="none" xmlns="http://www.w3.org/2000/svg">
<path d="M34.8791 36.8541H6.10989C3.84006 36.8541 2 34.9251 2 32.5455V13.1567C2 10.7771 3.84006 8.84811 6.10989 8.84811H34.8791C37.149 8.84811 38.989 10.7771 38.989 13.1567V32.5455C38.989 34.9251 37.149 36.8541 34.8791 36.8541Z" stroke="black" stroke-width="2.47"/>
<path d="M29.7417 23.9283C29.1743 23.9283 28.7142 23.4459 28.7142 22.8511C28.7142 22.2563 29.1743 21.774 29.7417 21.774C30.3091 21.774 30.7692 22.2563 30.7692 22.8511C30.7692 23.4459 30.3091 23.9283 29.7417 23.9283Z" fill="black" stroke="black" stroke-width="2.47" stroke-linecap="round" stroke-linejoin="round"/>
<path d="M32.8241 8.84812V5.83903C32.8241 3.00815 30.2645 0.946502 27.6553 1.67591L5.05091 7.99521C3.25181 8.49818 2 10.2063 2 12.1583V13.1567" stroke="black" stroke-width="2.47"/>
</svg>
