<svg width="64" height="65" viewBox="0 0 64 65" fill="none" xmlns="http://www.w3.org/2000/svg">
<path d="M9.97798 47.5369C9.97798 49.9515 9.36044 51.7985 8.12536 53.0781C6.9014 54.3688 5.12666 55.0142 2.80114 55.0142C2.33381 55.0142 1.88317 54.9808 1.44922 54.9141C1.00414 54.8473 0.564631 54.7472 0.130682 54.6136L0.53125 51.0753C0.764915 51.142 1.15436 51.2032 1.69957 51.2589C2.23366 51.3145 2.60085 51.3423 2.80114 51.3423C3.91383 51.3423 4.73165 51.0308 5.25462 50.4077C5.77758 49.7957 6.03906 48.8388 6.03906 47.5369V17.5277C6.03906 14.8572 6.68999 12.8099 7.99183 11.3857C9.29368 9.96141 11.1686 9.24929 13.6165 9.24929C14.1839 9.24929 14.7403 9.2938 15.2855 9.38281C15.8307 9.47183 16.3871 9.5831 16.9545 9.71662L16.4205 13.1214C16.1534 13.0547 15.725 13.0046 15.1353 12.9712C14.5567 12.9379 14.0504 12.9212 13.6165 12.9212C12.3703 12.9212 11.4523 13.2939 10.8626 14.0394C10.2728 14.7849 9.97798 15.9477 9.97798 17.5277V47.5369Z" fill="#075CFF"/>
<path d="M21.6179 8.54545V34H18.6847V8.54545H21.6179ZM29.9236 22.5156V34H26.9903V14.9091H29.8241V17.892H30.0727C30.5202 16.9226 31.1996 16.1437 32.1111 15.5554C33.0225 14.9588 34.1991 14.6605 35.6409 14.6605C36.9335 14.6605 38.0645 14.9257 39.034 15.456C40.0035 15.978 40.7575 16.7734 41.2961 17.8423C41.8347 18.9029 42.104 20.2453 42.104 21.8693V34H39.1707V22.0682C39.1707 20.5684 38.7813 19.4001 38.0024 18.5632C37.2235 17.718 36.1546 17.2955 34.7957 17.2955C33.8594 17.2955 33.0225 17.4985 32.2851 17.9045C31.5559 18.3105 30.98 18.9029 30.5574 19.6818C30.1349 20.4607 29.9236 21.4053 29.9236 22.5156Z" fill="#075CFF"/>
<path d="M49.6515 14.9091L54.2253 22.7145L58.7992 14.9091H62.1799L56.0151 24.4545L62.1799 34H58.7992L54.2253 26.5923L49.6515 34H46.2708L52.3361 24.4545L46.2708 14.9091H49.6515Z" fill="#075CFF"/>
<path d="M35.4855 37.9091L40.0594 45.7145L44.6332 37.9091H48.0139L41.8491 47.4545L48.0139 57H44.6332L40.0594 49.5923L35.4855 57H32.1048L38.1702 47.4545L32.1048 37.9091H35.4855Z" fill="#075CFF"/>
<rect x="18.7733" y="35" width="42.4267" height="2" fill="#075CFF"/>
</svg>
