<svg width="150" height="76" viewBox="0 0 150 76" fill="none" xmlns="http://www.w3.org/2000/svg">
<path d="M15.0469 26L6.29688 14.3168H3.16477V26H0.0823866V0.545454H3.16477V11.5824H4.5071L14.6989 0.545454H18.3778L8.08665 11.7315L18.7259 26H15.0469ZM27.9295 26.4474C26.7198 26.4474 25.6219 26.2196 24.6358 25.7638C23.6498 25.2998 22.8668 24.6328 22.2868 23.7628C21.7067 22.8845 21.4167 21.8239 21.4167 20.581C21.4167 19.4872 21.6322 18.6006 22.063 17.9212C22.4939 17.2334 23.0698 16.6948 23.7907 16.3054C24.5115 15.916 25.307 15.6259 26.177 15.4354C27.0553 15.2365 27.9378 15.0791 28.8244 14.9631C29.9844 14.8139 30.9249 14.7021 31.6458 14.6275C32.3749 14.5446 32.9052 14.4079 33.2367 14.2173C33.5764 14.0268 33.7463 13.6953 33.7463 13.223V13.1236C33.7463 11.8973 33.4107 10.9444 32.7395 10.2649C32.0766 9.58546 31.0699 9.24574 29.7193 9.24574C28.319 9.24574 27.2211 9.55232 26.4256 10.1655C25.6301 10.7786 25.0708 11.4332 24.7477 12.1293L21.9636 11.1349C22.4608 9.9749 23.1236 9.07173 23.9522 8.42543C24.7891 7.77083 25.7006 7.3151 26.6866 7.05824C27.6809 6.79309 28.6587 6.66051 29.6199 6.66051C30.233 6.66051 30.9373 6.73508 31.7328 6.88423C32.5365 7.02509 33.3113 7.31925 34.057 7.76669C34.811 8.21413 35.4366 8.88944 35.9338 9.79261C36.4309 10.6958 36.6795 11.9055 36.6795 13.4219V26H33.7463V23.4148H33.5971C33.3983 23.8291 33.0668 24.2724 32.6028 24.7447C32.1388 25.217 31.5215 25.6188 30.7509 25.9503C29.9803 26.2817 29.0398 26.4474 27.9295 26.4474ZM28.377 23.8125C29.537 23.8125 30.5147 23.5846 31.3102 23.1289C32.1139 22.6732 32.7188 22.0849 33.1248 21.364C33.5391 20.6431 33.7463 19.8849 33.7463 19.0895V16.4048C33.622 16.554 33.3485 16.6907 32.926 16.815C32.5117 16.931 32.0311 17.0346 31.4842 17.1257C30.9456 17.2086 30.4194 17.2831 29.9057 17.3494C29.4003 17.4074 28.9901 17.4571 28.6752 17.4986C27.9129 17.598 27.2003 17.7596 26.5375 17.9833C25.8829 18.1987 25.3526 18.526 24.9466 18.9652C24.5488 19.3961 24.35 19.9844 24.35 20.7301C24.35 21.7493 24.727 22.5199 25.481 23.0419C26.2433 23.5556 27.2086 23.8125 28.377 23.8125ZM49.789 32.5128V0.545454H52.7222V32.5128H49.789ZM49.789 26.3977C48.4964 26.3977 47.3198 26.1657 46.2591 25.7017C45.1985 25.2294 44.2871 24.5624 43.5248 23.7006C42.7625 22.8306 42.1742 21.7907 41.7599 20.581C41.3456 19.3712 41.1384 18.0289 41.1384 16.554C41.1384 15.0625 41.3456 13.7119 41.7599 12.5021C42.1742 11.2841 42.7625 10.2401 43.5248 9.37003C44.2871 8.5 45.1985 7.83298 46.2591 7.36896C47.3198 6.89666 48.4964 6.66051 49.789 6.66051H50.6839V26.3977H49.789ZM49.789 23.7628H50.2861V9.29545H49.789C48.8112 9.29545 47.9619 9.49432 47.241 9.89205C46.5202 10.2815 45.9236 10.8159 45.4513 11.4954C44.9872 12.1665 44.6392 12.9371 44.4072 13.8072C44.1835 14.6772 44.0716 15.5928 44.0716 16.554C44.0716 17.83 44.2747 19.0149 44.6807 20.1087C45.0867 21.2024 45.7123 22.0849 46.5574 22.756C47.4026 23.4272 48.4798 23.7628 49.789 23.7628ZM52.7222 26.3977H51.8273V6.66051H52.7222C54.0148 6.66051 55.1914 6.89666 56.252 7.36896C57.3126 7.83298 58.2241 8.5 58.9864 9.37003C59.7487 10.2401 60.337 11.2841 60.7513 12.5021C61.1656 13.7119 61.3728 15.0625 61.3728 16.554C61.3728 18.0289 61.1656 19.3712 60.7513 20.581C60.337 21.7907 59.7487 22.8306 58.9864 23.7006C58.2241 24.5624 57.3126 25.2294 56.252 25.7017C55.1914 26.1657 54.0148 26.3977 52.7222 26.3977ZM52.7222 23.7628C53.7082 23.7628 54.5576 23.5722 55.2702 23.1911C55.991 22.8016 56.5835 22.2713 57.0475 21.6001C57.5198 20.9207 57.8678 20.1501 58.0915 19.2884C58.3235 18.4183 58.4395 17.5069 58.4395 16.554C58.4395 15.2779 58.2365 14.0889 57.8305 12.9869C57.4245 11.8848 56.7989 10.9941 55.9537 10.3146C55.1086 9.63518 54.0314 9.29545 52.7222 9.29545H52.2251V23.7628H52.7222ZM73.8608 26.3977C72.0213 26.3977 70.4345 25.9917 69.1005 25.1797C67.7747 24.3594 66.7514 23.2159 66.0305 21.7493C65.3179 20.2744 64.9616 18.5592 64.9616 16.6037C64.9616 14.6482 65.3179 12.9247 66.0305 11.4332C66.7514 9.93348 67.754 8.76515 69.0384 7.92827C70.331 7.0831 71.839 6.66051 73.5625 6.66051C74.5568 6.66051 75.5387 6.82623 76.5082 7.15767C77.4776 7.48911 78.3601 8.0277 79.1555 8.77344C79.951 9.51089 80.5849 10.4886 81.0572 11.7067C81.5295 12.9247 81.7656 14.4245 81.7656 16.206V17.4489H67.0497V14.9134H78.7827C78.7827 13.8362 78.5672 12.875 78.1364 12.0298C77.7138 11.1847 77.1089 10.5176 76.3217 10.0288C75.5429 9.53989 74.6231 9.29545 73.5625 9.29545C72.3942 9.29545 71.3833 9.58546 70.5298 10.1655C69.6847 10.7372 69.0342 11.483 68.5785 12.4027C68.1228 13.3224 67.8949 14.3085 67.8949 15.3608V17.0511C67.8949 18.4929 68.1435 19.7151 68.6406 20.7177C69.1461 21.712 69.8462 22.4702 70.7411 22.9922C71.636 23.5059 72.6759 23.7628 73.8608 23.7628C74.6314 23.7628 75.3274 23.6551 75.9489 23.4396C76.5786 23.2159 77.1213 22.8845 77.5771 22.4453C78.0328 21.9979 78.3849 21.4427 78.6335 20.7798L81.4673 21.5753C81.169 22.5365 80.6677 23.3816 79.9634 24.1108C79.2591 24.8317 78.3891 25.3951 77.3533 25.8011C76.3176 26.1989 75.1534 26.3977 73.8608 26.3977ZM0.0823866 42.5455H3.11506V62.581H3.36364L17.2841 42.5455H20.267V68H17.1847V48.0142H16.9361L3.06534 68H0.0823866V42.5455ZM38.8142 57.1122V59.8466H28.2744V57.1122H38.8142ZM28.9704 48.9091V68H26.0372V48.9091H28.9704ZM41.0514 48.9091V68H38.1182V48.9091H41.0514ZM43.8106 51.6435V48.9091H59.322V51.6435H53.0578V68H50.1246V51.6435H43.8106ZM70.6137 68.3977C68.7742 68.3977 67.1875 67.9917 65.8534 67.1797C64.5277 66.3594 63.5044 65.2159 62.7835 63.7493C62.0709 62.2744 61.7146 60.5592 61.7146 58.6037C61.7146 56.6482 62.0709 54.9247 62.7835 53.4332C63.5044 51.9335 64.507 50.7652 65.7913 49.9283C67.0839 49.0831 68.5919 48.6605 70.3154 48.6605C71.3097 48.6605 72.2916 48.8262 73.2611 49.1577C74.2306 49.4891 75.113 50.0277 75.9085 50.7734C76.7039 51.5109 77.3378 52.4886 77.8101 53.7067C78.2824 54.9247 78.5186 56.4245 78.5186 58.206V59.4489H63.8026V56.9134H75.5356C75.5356 55.8362 75.3202 54.875 74.8893 54.0298C74.4667 53.1847 73.8618 52.5176 73.0747 52.0288C72.2958 51.5399 71.376 51.2955 70.3154 51.2955C69.1471 51.2955 68.1362 51.5855 67.2828 52.1655C66.4376 52.7372 65.7871 53.483 65.3314 54.4027C64.8757 55.3224 64.6478 56.3085 64.6478 57.3608V59.0511C64.6478 60.4929 64.8964 61.7151 65.3936 62.7177C65.899 63.712 66.5992 64.4702 67.4941 64.9922C68.3889 65.5059 69.4288 65.7628 70.6137 65.7628C71.3843 65.7628 72.0803 65.6551 72.7018 65.4396C73.3315 65.2159 73.8743 64.8845 74.33 64.4453C74.7857 63.9979 75.1379 63.4427 75.3865 62.7798L78.2203 63.5753C77.922 64.5365 77.4207 65.3816 76.7164 66.1108C76.012 66.8317 75.142 67.3951 74.1063 67.8011C73.0705 68.1989 71.9063 68.3977 70.6137 68.3977ZM92.7218 75.1591V48.9091H95.5556V51.9418H95.9036C96.119 51.6103 96.4173 51.1877 96.7985 50.674C97.1879 50.152 97.7431 49.688 98.464 49.282C99.1931 48.8677 100.179 48.6605 101.422 48.6605C103.03 48.6605 104.446 49.0624 105.673 49.8661C106.899 50.6699 107.856 51.8092 108.544 53.2841C109.232 54.759 109.575 56.4991 109.575 58.5043C109.575 60.526 109.232 62.2785 108.544 63.7617C107.856 65.2366 106.903 66.3801 105.685 67.1921C104.467 67.9959 103.063 68.3977 101.472 68.3977C100.245 68.3977 99.2636 68.1947 98.5261 67.7887C97.7886 67.3744 97.2211 66.9062 96.8233 66.3842C96.4256 65.8539 96.119 65.4148 95.9036 65.0668H95.655V75.1591H92.7218ZM95.6053 58.4545C95.6053 59.8963 95.8166 61.1682 96.2392 62.2702C96.6618 63.364 97.2791 64.2216 98.0911 64.843C98.9031 65.4562 99.8974 65.7628 101.074 65.7628C102.3 65.7628 103.324 65.4396 104.144 64.7933C104.973 64.1387 105.594 63.2604 106.008 62.1584C106.431 61.0481 106.642 59.8134 106.642 58.4545C106.642 57.1122 106.435 55.9025 106.021 54.8253C105.615 53.7398 104.997 52.8822 104.169 52.2525C103.349 51.6145 102.317 51.2955 101.074 51.2955C99.8809 51.2955 98.8783 51.5979 98.0662 52.2028C97.2542 52.7994 96.641 53.6362 96.2267 54.7134C95.8124 55.7823 95.6053 57.0294 95.6053 58.4545ZM119.668 68.4474C118.458 68.4474 117.36 68.2196 116.374 67.7638C115.388 67.2998 114.605 66.6328 114.025 65.7628C113.445 64.8845 113.155 63.8239 113.155 62.581C113.155 61.4872 113.37 60.6006 113.801 59.9212C114.232 59.2334 114.808 58.6948 115.529 58.3054C116.25 57.916 117.045 57.6259 117.915 57.4354C118.794 57.2365 119.676 57.0791 120.563 56.9631C121.723 56.8139 122.663 56.7021 123.384 56.6275C124.113 56.5446 124.644 56.4079 124.975 56.2173C125.315 56.0268 125.485 55.6953 125.485 55.223V55.1236C125.485 53.8973 125.149 52.9444 124.478 52.2649C123.815 51.5855 122.808 51.2457 121.458 51.2457C120.057 51.2457 118.959 51.5523 118.164 52.1655C117.368 52.7786 116.809 53.4332 116.486 54.1293L113.702 53.1349C114.199 51.9749 114.862 51.0717 115.691 50.4254C116.527 49.7708 117.439 49.3151 118.425 49.0582C119.419 48.7931 120.397 48.6605 121.358 48.6605C121.971 48.6605 122.676 48.7351 123.471 48.8842C124.275 49.0251 125.05 49.3192 125.795 49.7667C126.549 50.2141 127.175 50.8894 127.672 51.7926C128.169 52.6958 128.418 53.9055 128.418 55.4219V68H125.485V65.4148H125.335C125.137 65.8291 124.805 66.2724 124.341 66.7447C123.877 67.217 123.26 67.6188 122.489 67.9503C121.719 68.2817 120.778 68.4474 119.668 68.4474ZM120.115 65.8125C121.275 65.8125 122.253 65.5846 123.048 65.1289C123.852 64.6732 124.457 64.0849 124.863 63.364C125.277 62.6431 125.485 61.8849 125.485 61.0895V58.4048C125.36 58.554 125.087 58.6907 124.664 58.815C124.25 58.931 123.769 59.0346 123.222 59.1257C122.684 59.2086 122.158 59.2831 121.644 59.3494C121.139 59.4074 120.728 59.4571 120.414 59.4986C119.651 59.598 118.939 59.7596 118.276 59.9833C117.621 60.1987 117.091 60.526 116.685 60.9652C116.287 61.3961 116.088 61.9844 116.088 62.7301C116.088 63.7493 116.465 64.5199 117.219 65.0419C117.982 65.5556 118.947 65.8125 120.115 65.8125ZM132.081 68V65.2656H132.777C133.349 65.2656 133.825 65.1538 134.207 64.93C134.588 64.698 134.894 64.2962 135.126 63.7244C135.367 63.1444 135.549 62.3407 135.673 61.3132C135.806 60.2775 135.901 58.96 135.959 57.3608L136.307 48.9091H149.034V68H146.101V51.6435H139.091L138.793 58.4545C138.727 60.0206 138.586 61.4002 138.37 62.5934C138.163 63.7783 137.844 64.7726 137.413 65.5763C136.991 66.3801 136.427 66.985 135.723 67.391C135.019 67.797 134.136 68 133.076 68H132.081Z" fill="black"/>
<path d="M86.2369 69.8892C86.2369 71.6873 85.7771 73.0627 84.8573 74.0156C83.9459 74.9768 82.6243 75.4574 80.8925 75.4574C80.5445 75.4574 80.2089 75.4325 79.8857 75.3828C79.5543 75.3331 79.227 75.2585 78.9039 75.1591L79.2021 72.5241C79.3762 72.5739 79.6662 72.6194 80.0722 72.6609C80.4699 72.7023 80.7433 72.723 80.8925 72.723C81.7211 72.723 82.3301 72.491 82.7195 72.027C83.109 71.5713 83.3037 70.8587 83.3037 69.8892V47.5419C83.3037 45.5533 83.7884 44.0286 84.7579 42.968C85.7274 41.9074 87.1236 41.3771 88.9465 41.3771C89.3691 41.3771 89.7834 41.4103 90.1894 41.4766C90.5954 41.5428 91.0097 41.6257 91.4323 41.7251L91.0345 44.2607C90.8357 44.2109 90.5167 44.1737 90.0775 44.1488C89.6466 44.1239 89.2696 44.1115 88.9465 44.1115C88.0184 44.1115 87.3348 44.3891 86.8957 44.9442C86.4565 45.4994 86.2369 46.3653 86.2369 47.5419V69.8892Z" fill="#075CFF"/>
</svg>
